<svg id="Line" xmlns="http://www.w3.org/2000/svg" viewBox="0 0 24 24" width="48" height="48"><path id="primary" d="M20,12A8,8,0,0,1,4,12a7.91,7.91,0,0,1,.71-3.3,8,8,0,0,1,4-4,8,8,0,0,1,6.6,0,8,8,0,0,1,4,4A7.91,7.91,0,0,1,20,12ZM6,3A3,3,0,0,0,4.71,8.7a8,8,0,0,1,4-4A3,3,0,0,0,6,3ZM18,3a3,3,0,0,0-2.7,1.71,8,8,0,0,1,4,4A3,3,0,0,0,18,3ZM8,19,6,21m10-2,2,2" style="fill: none; stroke: rgb(0, 0, 0); stroke-linecap: round; stroke-linejoin: round; stroke-width: 1;"></path><polyline id="primary-2" data-name="primary" points="12 8 12 12 14 14" style="fill: none; stroke: rgb(0, 0, 0); stroke-linecap: round; stroke-linejoin: round; stroke-width: 1;"></polyline></svg>